<svg width="16" height="16" viewBox="0 0 16 16" fill="none" xmlns="http://www.w3.org/2000/svg">
<path d="M13.9997 2L14.4997 1.99996C14.4997 1.72383 14.2758 1.5 13.9997 1.5V2ZM10.3078 1.5C10.0316 1.5 9.80779 1.72386 9.80779 2C9.80779 2.27614 10.0316 2.5 10.3078 2.5V2V1.5ZM13.5 5.69235C13.5 5.96849 13.7239 6.19233 14 6.19231C14.2762 6.19229 14.5 5.96841 14.5 5.69227L14 5.69231L13.5 5.69235ZM9.84596 6.15385L10.1995 6.5074L14.3533 2.35355L13.9997 2L13.6461 1.64645L9.4924 5.8003L9.84596 6.15385ZM10.3078 2V2.5H13.9997V2V1.5H10.3078V2ZM13.9997 2L13.4997 2.00004L13.5 5.69235L14 5.69231L14.5 5.69227L14.4997 1.99996L13.9997 2ZM11.2305 9.38462H10.7305C10.7305 11.6575 8.88806 13.5 6.61527 13.5V14V14.5C9.44037 14.5 11.7305 12.2098 11.7305 9.38462H11.2305ZM6.61527 14V13.5C4.34248 13.5 2.5 11.6575 2.5 9.38462H2H1.5C1.5 12.2098 3.79017 14.5 6.61527 14.5V14ZM2 9.38462H2.5C2.5 7.11174 4.34248 5.26923 6.61527 5.26923V4.76923V4.26923C3.79017 4.26923 1.5 6.55948 1.5 9.38462H2ZM6.61527 4.76923V5.26923C8.88806 5.26923 10.7305 7.11174 10.7305 9.38462H11.2305H11.7305C11.7305 6.55948 9.44037 4.26923 6.61527 4.26923V4.76923Z" fill="#006AD4"/>
</svg>
